<?xml version="1.0" encoding="UTF-8"?>
<svg width="1024px" height="1024px" viewBox="0 0 1024 1024" version="1.1" xmlns="http://www.w3.org/2000/svg" xmlns:xlink="http://www.w3.org/1999/xlink">
    <title>Frame</title>
    <g id="Frame" stroke="none" fill="none" fill-rule="evenodd">
        <path d="M464.094214,913.48242 C465.861239,929.381139 454.744518,946.11357 439.384997,950.66991 L405.423174,960.761718 C390.063653,965.318058 374.752676,956.244155 371.393388,940.607185 L354.480438,861.763115 C351.12115,846.126144 361.06309,836.606302 376.568245,840.619759 L430.1421,854.482665 C445.656964,858.496122 459.79316,874.792308 461.550476,890.681332 L464.094214,913.48242 Z M801.8095,484.449696 L572.999239,494.182814 C558.562065,494.82264 544.901606,503.276105 538.416044,517.294121 L535.01792,524.59396 L468.443813,668.021724 C431.346007,665.675694 398.529836,654.643535 375.548808,637.542718 C362.412631,627.925933 351.878446,615.827396 343.781202,601.925712 C339.742289,594.994259 336.324747,587.529617 333.693628,579.851699 C332.373214,576.022435 331.246978,572.135004 330.382884,568.412378 C329.945982,566.560759 329.577043,564.728528 329.314902,563.099879 L329.013925,560.899264 L328.955672,560.172188 C328.955672,560.162494 328.955672,560.094634 328.955672,560.065551 C328.955672,556.876113 327.936234,553.773924 327.149811,550.729901 L468.269053,469.656133 L469.890443,468.725476 C476.88087,464.692631 482.444085,458.148951 485.094622,449.86029 L543.804498,266.811757 C549.503637,249.032337 539.697622,230.012041 521.90116,224.321463 C504.09499,218.630885 485.046077,228.422169 479.346937,246.191895 L425.219674,414.950971 C425.219674,414.950971 235.080065,493.339406 205.759108,518.85491 C191.205428,531.525413 187.671379,538.369617 178.816839,558.029739 C169.962298,577.689861 96.1259148,741.679322 96.1259148,741.679322 C88.7180042,758.111229 95.3006561,777.461132 111.194168,786.01154 L264.459276,868.413432 C269.643842,871.195708 275.226475,872.523833 280.741145,872.523833 C292.993809,872.523833 304.838699,865.970459 311.062121,854.453582 C320.072004,837.750234 313.809747,816.917097 297.081267,807.920749 L172.02059,740.680805 L207.419335,662.098482 C210.885421,668.477358 214.565104,674.768985 218.565182,680.886114 C238.128668,710.91918 264.478693,737.258703 294.401604,756.705549 C324.295387,776.307505 357.101849,788.939231 389.170431,796.239069 C421.326395,803.50013 457.249421,804.411398 475.473076,805.070613 C500.327927,805.972187 542.96953,788.076434 555.377538,751.683881 C561.367945,734.117736 610.05821,577.321476 610.05821,577.321476 L807.59602,552.06772 C824.887618,549.808939 838.014086,534.656685 837.25679,516.935431 C836.44124,498.196271 820.576855,483.65476 801.8095,484.449696 Z M901.782313,959.346344 C885.694622,959.346344 872.655534,946.326845 872.655534,930.263324 L872.655534,434.388123 L646.350175,354.816978 C638.44711,352.034702 632.126599,345.995128 629.000324,338.239656 L573.960422,201.675484 L226.604173,150.954696 C210.691243,148.628054 199.68132,133.85388 202.001754,117.964856 C204.331896,102.066138 219.108882,91.0824503 235.041229,93.3993977 L598.951198,146.543771 C609.203824,148.046394 617.883604,154.861515 621.757466,164.468606 L678.127491,304.328854 L911.452403,386.372056 C923.112823,390.453373 930.909091,401.456449 930.909091,413.797344 L930.909091,930.263324 C930.909091,946.326845 917.870003,959.346344 901.782313,959.346344 Z M213.681592,467.339186 C261.546598,470.043907 303.013421,431.062964 304.324126,382.077463 C305.615413,333.014407 266.964178,291.910404 218.895285,291.396604 C171.166205,290.844026 130.456678,331.695976 130.678162,379.925319 C130.874161,425.944353 167.748663,464.731408 213.681592,467.339186 Z" id="Combined-Shape" fill="#FFFFFF"></path>
    </g>
</svg>